<svg t="1584155356069" class="icon" viewBox="0 0 1024 1024" version="1.1" xmlns="http://www.w3.org/2000/svg" p-id="48360" width="200" height="200"><path d="M512 512m-512 0a512 512 0 1 0 1024 0 512 512 0 1 0-1024 0Z" fill="#CF7C3F" p-id="48361"></path><path d="M807.072 293.232l-25.44 28.76L575.12 124.824s1.608 14.664-18.664 1.144-79.256 39.032-79.256 39.032l77 73.608L259.072 691.44l-41.992 10.832 323.984 320.856C810.304 1008.056 1024 785.008 1024 512c0-1.352-0.088-2.688-0.104-4.04l-216.824-214.728z" fill="#BA6228" p-id="48362"></path><path d="M538.168 139.928l15.04-28.032a67.648 67.648 0 0 0-56.768 5.224l20.232 24.664a36.448 36.448 0 0 1 21.496-1.856zM490.688 329.264a15.6 15.6 0 0 0 27.6 14.536l7.888-14.984-27.6-14.528-7.888 14.976zM565.88 167.048l31.904 2.744a67.728 67.728 0 0 0-22.672-44.976l-15.496 28.88c3 4 5.12 8.544 6.264 13.352zM560.24 264.136L532.64 249.6l10.448-19.84 27.6 14.52zM537.976 306.392l-27.592-14.528 10.464-19.856 27.584 14.528zM470.664 143.936a15.6 15.6 0 0 0 6.528 21.064c7.464 3.92 16.624 1.168 20.776-6.096l-20.64-25.16c-2.48 3.16-4.728 6.52-6.664 10.192zM562.744 192.424l-7.872 14.936 27.6 14.536 7.864-14.944c2.056-3.888 3.648-7.904 4.872-11.96l-32.368-2.792-0.096 0.224z" fill="#EBDEB9" p-id="48363"></path><path d="M526.144 328.824l-27.6-14.528 11.784-22.4 27.6 14.536zM548.4 286.52L520.816 272l11.8-22.4 27.584 14.528zM570.664 244.328l-27.6-14.528 11.8-22.4 27.6 14.528zM562.84 192.2l32.368 2.792a67.2 67.2 0 0 0 2.576-25.2l-31.904-2.744a36.152 36.152 0 0 1-3.04 25.152zM497.968 158.904c0.096-0.16 0.208-0.28 0.288-0.448a36.192 36.192 0 0 1 18.424-16.672l-20.232-24.664a67.2 67.2 0 0 0-19.12 16.624l20.64 25.16zM547.496 143.296a35.968 35.968 0 0 1 12.136 10.408l15.496-28.88a68.08 68.08 0 0 0-13.184-9.168 68.024 68.024 0 0 0-8.72-3.752l-15.04 28.032c3.16 0.68 6.296 1.768 9.312 3.36z" fill="#B8332F" p-id="48364"></path><path d="M248.624 329.8l75.76 5.592 37.104-36.264 369.616 138.088-48.36 178.952-381.84-148.84z" fill="#9A4922" p-id="48365"></path><path d="M395.328 194.488l-138.152 68.76L395.304 345.76l138.152-82.512z" fill="#3CB19C" p-id="48366"></path><path d="M395.32 336.584l-138.144-73.336v43.072l138.144 77.928z" fill="#1D7A69" p-id="48367"></path><path d="M395.32 488.608V384.248L257.176 306.32v99.776z" fill="#358D7E" p-id="48368"></path><path d="M395.32 336.584l138.136-73.336v43.072l-138.136 77.928z" fill="#1D7A69" p-id="48369"></path><path d="M395.32 488.608V384.248l138.136-77.928v99.776z" fill="#358D7E" p-id="48370"></path><path d="M332.832 451.288l-31.504-18.96V286.688l31.504 16.696z" fill="#B11F25" p-id="48371"></path><path d="M301.328 286.688l140.824-68.888 31.272 15.568-140.592 70.016z" fill="#E1574C" p-id="48372"></path><path d="M452.272 454.104l31.504-18.952V289.512l-31.504 16.696z" fill="#B11F25" p-id="48373"></path><path d="M483.776 289.512l-140.808-68.888-31.296 15.568 140.6 70.016z" fill="#E1574C" p-id="48374"></path><path d="M478.432 232.656c2.56 14.616-4.776 28.416-19.856 31.832-11.688 2.648-24.832 1.456-36.816 1.32-4.72-0.056-8.904-1.168-13.456-1.912-3.6-0.592-8.44 0.296-11.784-0.952 2.728-2.256 4.504-7.112 6.28-10.272 0.856-1.488 1.224-3.664 2.376-4.968 2.008-2.264 6.056-3.488 8.784-4.776 6.88-3.256 14.032-3.04 21.512-3.88 6.16-0.696 13.928-1.256 19.592-3.928 5.76-2.712 7.096-8.896 7.096-14.888" fill="#89181A" p-id="48375"></path><path d="M407.648 241.264c5.016-4.64 8.704-11.12 13.512-16.096 5.592-5.8 11.624-12.368 18.696-16.68 5.336-3.256 16.192-7.384 22.648-3.96 4.888 2.608 9.064 12.48 11.704 17.36 2.32 4.296 5.832 9.008 4.792 14.256-4.432-5.064-7.336-10.952-15.32-10.504-7.424 0.424-14.136 4.792-20.416 8.624-12.696 7.752-23.864 16.36-37.928 21.568-1.472 0.544-2.952 1.576-4.328 0.504-1.352-1.056-2.424-5.944-3.232-7.432" fill="#D22027" p-id="48376"></path><path d="M305.472 232.656c-2.552 14.616 4.768 28.416 19.864 31.832 11.68 2.648 24.824 1.456 36.808 1.32 4.72-0.056 8.904-1.168 13.456-1.912 3.616-0.592 8.448 0.296 11.784-0.952-2.72-2.256-4.496-7.112-6.28-10.272-0.856-1.488-1.224-3.664-2.384-4.968-2-2.264-6.04-3.488-8.768-4.776-6.888-3.256-14.032-3.04-21.52-3.88-6.16-0.696-13.936-1.256-19.6-3.928-5.76-2.712-7.088-8.896-7.088-14.888" fill="#89181A" p-id="48377"></path><path d="M376.248 241.264c-5-4.64-8.704-11.12-13.504-16.096-5.592-5.8-11.632-12.368-18.704-16.68-5.328-3.256-16.192-7.384-22.64-3.96-4.896 2.608-9.072 12.48-11.712 17.36-2.32 4.296-5.824 9.008-4.792 14.256 4.424-5.064 7.336-10.952 15.32-10.504 7.416 0.424 14.144 4.792 20.416 8.624 12.696 7.752 23.872 16.36 37.928 21.568 1.48 0.544 2.96 1.576 4.336 0.504 1.344-1.056 2.424-5.944 3.232-7.432" fill="#D22027" p-id="48378"></path><path d="M381.32 264.688s12.784 68.328 104.936 41.52l-24-9.776s23.784-16.808 31.36-33.024c0 0-24.392 17.928-59.64 15.6-35.232-2.32-30.968-15.768-30.968-15.768l-21.688 1.448z" fill="#E11F26" p-id="48379"></path><path d="M378.712 257.4s-66.56 27.928-52.864 82.128l20.952-27.368s13 32.032 45.896 37.224c0 0-49.88-63.888 5.032-86.336l-19.016-5.648z" fill="#D12027" p-id="48380"></path><path d="M378.664 238.336c-4.592 3.824-5.96 21.888-1.144 26.36 3.144 2.936 8.784 0.536 12.984 0.12 4.968-0.488 10.168 0.216 15.144-0.056 3.152-8.2 4.16-18.08 1.024-26.352a492.616 492.616 0 0 0-28.008-0.648" fill="#E11F26" p-id="48381"></path><path d="M442.104 367.832c1.688-5.808-1.968-7.008-3.096-11.752-1.464-6.128 6.368-7.504 7.936-11.64 0.576-1.552 0.752-4.168 0.24-6.6-11.728-1.568-22.536 4.792-24.416 14.656-1.688 8.928 4.488 17.872 14.184 21.608 2.648-1.472 4.32-3.456 5.152-6.272zM449.912 455.944c-5.848-2.328-2.504-9.528-4.984-13.168-0.888-1.32-2.816-2.888-4.984-3.88l-0.688 0.528c-8.72 6.56-11.352 17.872-5.864 25.144 5.488 7.28 17.104 7.856 25.816 1.296l3.776-2.848a10.32 10.32 0 0 0-1.656-2.864c-3.792-4.712-6.872-2.408-11.416-4.208zM597.04 352.504c-1.856-9.864-12.664-16.224-24.408-14.656-0.512 2.432-0.328 5.048 0.248 6.6 1.56 4.128 9.392 5.504 7.928 11.64-1.12 4.744-4.784 5.944-3.088 11.752 0.816 2.816 2.488 4.808 5.128 6.28 9.712-3.752 15.896-12.696 14.192-21.616zM574.896 442.776c-2.504 3.64 0.872 10.84-4.984 13.168-4.536 1.8-7.624-0.504-11.416 4.208a10.728 10.728 0 0 0-1.656 2.864l3.776 2.848c8.72 6.56 20.32 5.984 25.816-1.296 5.488-7.272 2.84-18.584-5.856-25.144l-0.704-0.528c-2.176 0.992-4.088 2.568-4.976 3.88z" fill="#A5D06E" p-id="48382"></path><path d="M544.44 381.824l33.8-6.4c1.608-0.304 3.16-0.76 4.616-1.32-2.64-1.472-4.312-3.464-5.128-6.28-1.696-5.808 1.968-7.008 3.088-11.752 1.464-6.128-6.368-7.504-7.928-11.64-0.576-1.552-0.768-4.168-0.248-6.6a19.616 19.616 0 0 0-1.488 0.216l-32.944 6.248a34.52 34.52 0 1 0-56.584 0l-32.936-6.248a19.816 19.816 0 0 0-1.496-0.216c0.504 2.432 0.336 5.048-0.24 6.6-1.568 4.128-9.4 5.504-7.936 11.64 1.128 4.744 4.784 5.944 3.096 11.752a10.184 10.184 0 0 1-5.144 6.28 28 28 0 0 0 4.624 1.32l33.792 6.4v30.368l-35.432 26.712c2.168 0.992 4.096 2.56 4.984 3.88 2.488 3.64-0.864 10.84 4.984 13.168 4.536 1.8 7.624-0.504 11.408 4.208 0.736 0.912 1.28 1.864 1.656 2.864l36.288-27.344h21.28l36.296 27.344c0.384-1 0.928-1.952 1.656-2.864 3.792-4.712 6.872-2.408 11.416-4.208 5.856-2.328 2.488-9.528 4.984-13.168 0.88-1.32 2.8-2.888 4.968-3.88l-35.432-26.704v-30.376z" fill="#88AE4A" p-id="48383"></path><path d="M496.008 319.144m-3.584 0a3.584 3.584 0 1 0 7.168 0 3.584 3.584 0 1 0-7.168 0Z" fill="#ECECEC" p-id="48384"></path><path d="M523.816 319.144m-3.584 0a3.584 3.584 0 1 0 7.168 0 3.584 3.584 0 1 0-7.168 0Z" fill="#ECECEC" p-id="48385"></path><path d="M495.856 333.664a16.472 16.472 0 0 0 28.104 0h-28.104z" fill="#ECECEC" p-id="48386"></path><path d="M509.896 369.272m-4.832 0a4.832 4.832 0 1 0 9.664 0 4.832 4.832 0 1 0-9.664 0Z" fill="#ECECEC" p-id="48387"></path><path d="M509.896 390.792m-4.832 0a4.832 4.832 0 1 0 9.664 0 4.832 4.832 0 1 0-9.664 0Z" fill="#ECECEC" p-id="48388"></path><path d="M509.896 412.32m-4.832 0a4.832 4.832 0 1 0 9.664 0 4.832 4.832 0 1 0-9.664 0Z" fill="#ECECEC" p-id="48389"></path><path d="M701.552 439.136L597.088 253.56 523.44 453.384l0.216-0.016a5.952 5.952 0 0 0-0.096 1.504c0.992 12.352 41.664 19.16 90.84 15.224 49.168-3.928 88.256-17.136 87.264-29.48a6 6 0 0 0-0.336-1.48h0.224z" fill="#4ABDE5" p-id="48390"></path><path d="M595.832 237.776m-28.016 0a28.016 28.016 0 1 0 56.032 0 28.016 28.016 0 1 0-56.032 0Z" fill="#E11F26" p-id="48391"></path><path d="M561.608 457.76c-9.128 0.736-19.504-1.52-26.4-5.832l4.704-7.52c5.72 3.56 14.968 5.352 22.552 4.344 5.768-0.76 6.64-2.512 8.992-7.184 1.168-2.344 2.656-5.264 5.064-8.336 8.096-10.36 19.704-10.664 29.944-10.944 4.568-0.12 9.304-0.256 13.672-1.2 11.672-2.536 11.264-6.728 10.392-15.928-0.528-5.592-1.136-11.936 1.456-18.48 1.664-4.176 4.008-6.544 5.88-8.456 2.16-2.168 3.344-3.384 3.52-7.168 0.192-4.248-1.568-6.832-3.808-10.104-1.904-2.784-4.056-5.928-4.856-10.264l8.72-1.616c0.456 2.496 1.856 4.52 3.464 6.88 2.52 3.688 5.672 8.288 5.336 15.496-0.328 7.2-3.504 10.424-6.064 13.008-1.576 1.6-2.952 2.992-3.936 5.488-1.816 4.552-1.328 9.552-0.872 14.368 0.896 9.456 2.024 21.232-17.328 25.44-5.184 1.128-10.344 1.264-15.328 1.392-9.864 0.264-17.68 0.472-23.208 7.544-1.864 2.384-3.008 4.656-4.112 6.848-2.632 5.216-5.36 10.616-15.76 11.992a28.48 28.48 0 0 1-2.024 0.232zM573.024 399.072a46.576 46.576 0 0 1-18.264-2.392l2.864-8.384c8.928 3.04 21.208 3.304 27.056-3.312 2.936-3.328 3.952-7.24 5.144-11.768 1.144-4.336 2.424-9.272 5.752-13.704 2.744-3.696 6.2-6.208 9.544-8.64 4.784-3.488 8.552-6.224 9.56-11.584 0.736-3.848-0.168-8-1.096-12.368-1.272-5.936-2.712-12.656 0.112-19.344l8.168 3.44c-1.728 4.136-0.744 8.728 0.4 14.056 1.024 4.816 2.184 10.264 1.144 15.856-1.672 8.832-7.712 13.232-13.064 17.136-2.936 2.136-5.704 4.152-7.664 6.76-2.28 3.056-3.24 6.744-4.264 10.656-1.288 4.912-2.744 10.48-7.072 15.376-4.568 5.176-11.256 7.656-18.32 8.216zM578.416 330.92l-0.8-8.824c10.84-0.992 16.248-2.584 19.576-9.4 0.944-1.96 1.048-4.76 1.152-7.744 0.168-4.928 0.4-11.032 5.224-15.184l5.784 6.72c-1.76 1.504-1.984 4.32-2.136 8.784-0.136 3.592-0.272 7.664-2.056 11.312-6.072 12.464-18.024 13.552-26.744 14.336zM652.12 453.544l-6-6.528c3.584-3.304 8.032-5.048 12.328-6.76 6.616-2.616 10.736-4.472 12.08-9.272 0.976-3.544-0.392-9.864-1.584-15.432-0.776-3.544-1.504-6.904-1.744-9.88l8.84-0.704c0.176 2.384 0.848 5.456 1.56 8.712 1.496 6.888 3.032 14.016 1.464 19.672-2.584 9.312-10.776 12.552-17.344 15.152-3.72 1.472-7.224 2.856-9.6 5.04z" fill="#FFFFFF" p-id="48392"></path><path d="M742.848 369.32m-61.328 0a61.328 61.328 0 1 0 122.656 0 61.328 61.328 0 1 0-122.656 0Z" fill="#ECECEC" p-id="48393"></path><path d="M684.224 390.424c-45.52 56.04-76.2 106.512-57.056 122.072 19.52 15.864 62.256-24.824 107.784-80.864" fill="#358D7E" p-id="48394"></path><path d="M794.056 335.088c12.336-15.176 18.952-30.208 8.6-38.624-10.568-8.592-23.728 1.144-36.056 16.336" fill="#4ABDE5" p-id="48395"></path><path d="M700.944 324.936c9.016 23.776 22.448 40.288 36.456 51.68 24.168 19.632 49.936 24.136 57.816 25.088a62.336 62.336 0 0 1-4.632 6.648c-3.376 4.152-7.216 7.68-11.336 10.72a5.872 5.872 0 0 0-4.672-2.88c-2.456-0.144-60.36-4.136-83.864-68.504a5.912 5.912 0 0 0-3.584-3.496c2.12-4.64 4.784-9.12 8.152-13.256a57.6 57.6 0 0 1 5.664-6z" fill="#BD3929" p-id="48396"></path><path d="M798.328 390.008c-2.552-0.152-62.52-4.264-86.864-70.936a5.216 5.216 0 0 0-0.92-1.52 61.368 61.368 0 0 1 71.096 4.448c20.84 16.928 27.624 44.688 18.952 68.592a5.888 5.888 0 0 0-2.264-0.584zM715.496 403.576a115.304 115.304 0 0 0 49.592 23.272 61.304 61.304 0 0 1-82.64-67.648c8.664 20.008 20.608 34.28 33.048 44.376z" fill="#BD3929" p-id="48397"></path><path d="M769 405.656m-4.624 0a4.624 4.624 0 1 0 9.248 0 4.624 4.624 0 1 0-9.248 0Z" fill="#FBED1F" p-id="48398"></path><path d="M745.352 395.304m-4.632 0a4.632 4.632 0 1 0 9.264 0 4.632 4.632 0 1 0-9.264 0Z" fill="#FBED1F" p-id="48399"></path><path d="M721.088 375.592m-4.624 0a4.624 4.624 0 1 0 9.248 0 4.624 4.624 0 1 0-9.248 0Z" fill="#FBED1F" p-id="48400"></path><path d="M703.68 352.6m-4.632 0a4.632 4.632 0 1 0 9.264 0 4.632 4.632 0 1 0-9.264 0Z" fill="#FBED1F" p-id="48401"></path><path d="M664.712 470.8c14.408 11.696 26.872 13.824 27.656 13.944a5.984 5.984 0 0 0 1.888-11.816c-1.112-0.184-24.16-4.544-42.064-35.56a5.984 5.984 0 1 0-10.36 5.984c7.224 12.512 15.32 21.304 22.88 27.448z" fill="#D8B35F" p-id="48402"></path><path d="M775.176 304.656a5.824 5.824 0 0 0 2.008 1.064c15.928 4.92 21.072 16.464 21.28 16.952a6.032 6.032 0 0 0 7.832 3.16 5.952 5.952 0 0 0 3.208-7.776c-0.296-0.696-7.288-17.12-28.792-23.768a5.992 5.992 0 0 0-5.536 10.368z" fill="#358D7E" p-id="48403"></path><path d="M618.216 488.192l-45.52 427.864-358.664-213.928 34.592-372.328z" fill="#D7DADA" p-id="48404"></path><path d="M618.216 488.192l58.264 9.104 18.208 345.928-121.992 72.832" fill="#AEB4AD" p-id="48405"></path><path d="M807.568 810.456l-76.464-373.24-54.624 60.08 18.208 345.928z" fill="#D7DADA" p-id="48406"></path><path d="M310.56 409.456m-13.824 0a13.824 13.824 0 1 0 27.648 0 13.824 13.824 0 1 0-27.648 0Z" fill="#233640" p-id="48407"></path><path d="M504.728 491.168m-13.832 0a13.832 13.832 0 1 0 27.664 0 13.832 13.832 0 1 0-27.664 0Z" fill="#233640" p-id="48408"></path><path d="M422.64 646.656a69.064 69.064 0 0 0 40.912-10.624c25.528-16.168 41.36-48.4 43.424-88.424l2.92-56.704a6.336 6.336 0 0 0-6.016-6.664 6.328 6.328 0 0 0-6.664 6.008l-2.92 56.696c-1.848 35.864-15.52 64.424-37.528 78.344-16.68 10.56-36.368 11.664-56.944 3.176C348.8 607.448 310.112 535.464 313.6 467.984l2.92-56.696a6.344 6.344 0 1 0-12.68-0.656l-2.928 56.696c-3.736 72.432 38.472 149.992 94.088 172.896 9.272 3.816 18.568 5.952 27.64 6.432z" fill="#BB2026" p-id="48409"></path></svg>