<svg t="1584155410870" class="icon" viewBox="0 0 1024 1024" version="1.1" xmlns="http://www.w3.org/2000/svg" p-id="48786" width="200" height="200"><path d="M871.3 401.8H290.1c-26.7 0-48.3-21.6-48.3-48.3s21.6-48.3 48.3-48.3h581.2c26.7 0 48.3 21.6 48.3 48.3s-21.6 48.3-48.3 48.3z" fill="#DA2048" opacity=".8" p-id="48787"></path><path d="M795.2 740.8h-445c-26.7 0-48.3-21.6-48.3-48.3s21.6-48.3 48.3-48.3h445c26.7 0 48.3 21.6 48.3 48.3s-21.6 48.3-48.3 48.3z" fill="#DA2048" opacity=".8" p-id="48788"></path><path d="M350.2 740.8c-23 0-43.3-16.5-47.5-39.8L242.6 362l-21.3-133.1c-4.2-26.3 13.7-51.1 40-55.3 26.3-4.2 51.1 13.7 55.3 40L337.8 346l59.9 338.2c4.6 26.2-12.9 51.3-39.1 55.9-2.8 0.5-5.7 0.7-8.4 0.7z" fill="#DA2048" opacity=".8" p-id="48789"></path><path d="M795.3 740.8c-3.5 0-7.1-0.4-10.6-1.2-26-5.8-42.4-31.6-36.5-57.7l76.1-339c5.8-26 31.7-42.3 57.7-36.5 26 5.8 42.4 31.6 36.5 57.7l-76.1 339c-5.1 22.5-25 37.7-47.1 37.7z" fill="#DA2048" opacity=".8" p-id="48790"></path><path d="M435.2 906.1c-38.3 0-69.4-31.2-69.4-69.4s31.2-69.4 69.4-69.4c38.3 0 69.4 31.2 69.4 69.4s-31.1 69.4-69.4 69.4z m0-96.5c-14.9 0-27.1 12.1-27.1 27.1 0 14.9 12.1 27.1 27.1 27.1 14.9 0 27.1-12.1 27.1-27.1 0-15-12.2-27.1-27.1-27.1z" fill="#DA2048" opacity=".8" p-id="48791"></path><path d="M726 906.1c-38.3 0-69.4-31.2-69.4-69.4s31.2-69.4 69.4-69.4c38.3 0 69.4 31.2 69.4 69.4s-31.1 69.4-69.4 69.4z m0-96.5c-14.9 0-27.1 12.1-27.1 27.1 0 14.9 12.1 27.1 27.1 27.1 14.9 0 27.1-12.1 27.1-27.1 0-15-12.2-27.1-27.1-27.1z" fill="#DA2048" opacity=".8" p-id="48792"></path><path d="M268.9 269.4H118.7c-26.7 0-48.3-21.6-48.3-48.3s21.6-48.3 48.3-48.3h150.2c26.7 0 48.3 21.6 48.3 48.3s-21.6 48.3-48.3 48.3z" fill="#DA2048" opacity=".8" p-id="48793"></path></svg>